<svg width="78" height="11" viewBox="0 0 78 11" fill="none" xmlns="http://www.w3.org/2000/svg">
<path d="M4.34 10.098C3.65867 10.098 3.04267 9.98133 2.492 9.748C1.95067 9.51467 1.52133 9.17867 1.204 8.74C0.886667 8.30133 0.723333 7.78333 0.714 7.186H2.814C2.842 7.58733 2.982 7.90467 3.234 8.138C3.49533 8.37133 3.85 8.488 4.298 8.488C4.75533 8.488 5.11467 8.38067 5.376 8.166C5.63733 7.942 5.768 7.65267 5.768 7.298C5.768 7.00867 5.67933 6.77067 5.502 6.584C5.32467 6.39733 5.10067 6.25267 4.83 6.15C4.56867 6.038 4.20467 5.91667 3.738 5.786C3.10333 5.59933 2.58533 5.41733 2.184 5.24C1.792 5.05333 1.45133 4.778 1.162 4.414C0.882 4.04067 0.742 3.546 0.742 2.93C0.742 2.35133 0.886667 1.84733 1.176 1.418C1.46533 0.988666 1.87133 0.662 2.394 0.438C2.91667 0.204666 3.514 0.0879999 4.186 0.0879999C5.194 0.0879999 6.01067 0.335333 6.636 0.83C7.27067 1.31533 7.62067 1.99667 7.686 2.874H5.53C5.51133 2.538 5.36667 2.26267 5.096 2.048C4.83467 1.824 4.48467 1.712 4.046 1.712C3.66333 1.712 3.35533 1.81 3.122 2.006C2.898 2.202 2.786 2.48667 2.786 2.86C2.786 3.12133 2.87 3.34067 3.038 3.518C3.21533 3.686 3.43 3.826 3.682 3.938C3.94333 4.04067 4.30733 4.162 4.774 4.302C5.40867 4.48867 5.92667 4.67533 6.328 4.862C6.72933 5.04867 7.07467 5.32867 7.364 5.702C7.65333 6.07533 7.798 6.56533 7.798 7.172C7.798 7.69467 7.66267 8.18 7.392 8.628C7.12133 9.076 6.72467 9.43533 6.202 9.706C5.67933 9.96733 5.05867 10.098 4.34 10.098ZM14.0333 10.098C13.1186 10.098 12.2786 9.88333 11.5133 9.454C10.7479 9.02467 10.1413 8.432 9.69325 7.676C9.24525 6.91067 9.02125 6.04733 9.02125 5.086C9.02125 4.134 9.24525 3.28 9.69325 2.524C10.1413 1.75867 10.7479 1.16133 11.5133 0.731999C12.2786 0.302666 13.1186 0.0879999 14.0333 0.0879999C14.9573 0.0879999 15.7973 0.302666 16.5533 0.731999C17.3186 1.16133 17.9206 1.75867 18.3593 2.524C18.8073 3.28 19.0313 4.134 19.0313 5.086C19.0313 6.04733 18.8073 6.91067 18.3593 7.676C17.9206 8.432 17.3186 9.02467 16.5533 9.454C15.7879 9.88333 14.9479 10.098 14.0333 10.098ZM14.0333 8.348C14.6213 8.348 15.1393 8.21733 15.5873 7.956C16.0353 7.68533 16.3853 7.30267 16.6373 6.808C16.8893 6.31333 17.0153 5.73933 17.0153 5.086C17.0153 4.43267 16.8893 3.86333 16.6373 3.378C16.3853 2.88333 16.0353 2.50533 15.5873 2.244C15.1393 1.98267 14.6213 1.852 14.0333 1.852C13.4453 1.852 12.9226 1.98267 12.4653 2.244C12.0173 2.50533 11.6673 2.88333 11.4153 3.378C11.1633 3.86333 11.0373 4.43267 11.0373 5.086C11.0373 5.73933 11.1633 6.31333 11.4153 6.808C11.6673 7.30267 12.0173 7.68533 12.4653 7.956C12.9226 8.21733 13.4453 8.348 14.0333 8.348ZM22.4494 8.446H25.6694V10H20.4894V0.228H22.4494V8.446ZM28.8752 0.228V10H26.9152V0.228H28.8752ZM34.2277 0.228C35.2544 0.228 36.155 0.428666 36.9297 0.83C37.7137 1.23133 38.3157 1.80533 38.7357 2.552C39.165 3.28933 39.3797 4.148 39.3797 5.128C39.3797 6.108 39.165 6.96667 38.7357 7.704C38.3157 8.432 37.7137 8.99667 36.9297 9.398C36.155 9.79933 35.2544 10 34.2277 10H30.8117V0.228H34.2277ZM34.1577 8.334C35.1844 8.334 35.9777 8.054 36.5377 7.494C37.0977 6.934 37.3777 6.14533 37.3777 5.128C37.3777 4.11067 37.0977 3.31733 36.5377 2.748C35.9777 2.16933 35.1844 1.88 34.1577 1.88H32.7717V8.334H34.1577ZM46.8389 8.138H42.9469L42.3029 10H40.2449L43.7589 0.213999H46.0409L49.5549 10H47.4829L46.8389 8.138ZM46.3069 6.57L44.8929 2.482L43.4789 6.57H46.3069ZM55.9083 10L53.7523 6.192H52.8283V10H50.8683V0.228H54.5363C55.2923 0.228 55.9363 0.363333 56.4683 0.634C57.0003 0.895333 57.397 1.25467 57.6583 1.712C57.929 2.16 58.0643 2.664 58.0643 3.224C58.0643 3.868 57.8777 4.45133 57.5043 4.974C57.131 5.48733 56.5757 5.842 55.8383 6.038L58.1763 10H55.9083ZM52.8283 4.722H54.4663C54.9983 4.722 55.395 4.596 55.6563 4.344C55.9177 4.08267 56.0483 3.72333 56.0483 3.266C56.0483 2.818 55.9177 2.47267 55.6563 2.23C55.395 1.978 54.9983 1.852 54.4663 1.852H52.8283V4.722ZM61.7971 0.228V10H59.8371V0.228H61.7971ZM65.7356 8.348H70.1316V10H63.4676V8.488L67.8356 1.88H63.4676V0.228H70.1316V1.74L65.7356 8.348ZM73.76 1.81V4.26H77.05V5.814H73.76V8.404H77.47V10H71.8V0.213999H77.47V1.81H73.76Z" fill="#EDF7F6"/>
</svg>
